<?xml version="1.0" standalone="no"?>
<!DOCTYPE svg PUBLIC "-//W3C//DTD SVG 20010904//EN"
 "http://www.w3.org/TR/2001/REC-SVG-20010904/DTD/svg10.dtd">
<svg version="1.0" xmlns="http://www.w3.org/2000/svg"
 width="512.000000pt" height="512.000000pt" viewBox="0 0 512.000000 512.000000"
 preserveAspectRatio="xMidYMid meet">

<g transform="translate(0.000000,512.000000) scale(0.100000,-0.100000)"
fill="#000000" stroke="none">
<path d="M1824 5055 c-161 -35 -296 -158 -345 -316 -16 -53 -19 -93 -19 -305
l0 -244 -467 0 c-518 0 -556 -4 -664 -62 -118 -62 -196 -152 -248 -286 l-26
-67 -3 -1617 c-3 -1782 -5 -1695 59 -1826 57 -117 179 -217 314 -259 57 -17
150 -18 2135 -18 l2075 0 71 22 c163 52 285 174 337 338 l22 70 0 1640 0 1640
-23 67 c-46 132 -131 233 -251 297 -108 57 -146 61 -663 61 l-468 0 0 244 c0
212 -3 252 -19 305 -50 160 -184 282 -350 317 -94 19 -1375 19 -1467 -1z
m1433 -325 c79 -35 83 -52 83 -312 l0 -228 -780 0 -780 0 0 228 c0 260 4 277
83 312 40 19 72 20 697 20 625 0 657 -1 697 -20z m1357 -872 c61 -19 112 -75
126 -140 8 -39 10 -469 8 -1628 l-3 -1575 -25 -43 c-15 -27 -42 -54 -70 -70
l-45 -27 -2045 0 -2045 0 -45 27 c-28 16 -55 43 -70 70 l-25 43 -3 843 -2 842
680 0 680 0 0 -83 c0 -50 6 -102 16 -131 22 -64 100 -147 166 -177 l53 -24
595 0 595 0 53 24 c66 30 144 113 166 177 10 29 16 81 16 131 l0 83 416 0
c463 0 460 0 512 68 22 29 27 46 27 93 0 62 -17 94 -69 133 -27 20 -41 21
-457 24 l-429 3 0 84 c0 148 -59 247 -179 304 l-56 26 -595 0 -595 0 -56 -26
c-63 -30 -121 -85 -152 -144 -16 -31 -22 -64 -25 -142 l-4 -103 -679 0 -679 0
0 581 c0 406 3 594 12 626 13 55 67 114 118 130 53 17 4058 17 4114 1z m-1544
-1498 l0 -260 -510 0 -510 0 0 260 0 260 510 0 510 0 0 -260z"/>
</g>
</svg>
